<svg width="49" height="38" viewBox="0 0 49 38" fill="none" xmlns="http://www.w3.org/2000/svg">
<path d="M7.1852 37.2857H42.0799C46.2349 37.2857 48.4279 35.1253 48.4279 30.9975V10.744C48.4279 6.61614 46.2349 4.45577 42.0799 4.45577H36.963C35.4626 4.45577 34.9817 4.20501 34.0391 3.22127L32.5194 1.5817C31.5191 0.520804 30.4996 0 28.5375 0H20.6314C18.6693 0 17.6498 0.520804 16.6495 1.5817L15.1298 3.22127C14.2065 4.18572 13.7063 4.45577 12.2059 4.45577H7.1852C3.03015 4.45577 0.856445 6.61614 0.856445 10.744V30.9975C0.856445 35.1253 3.03015 37.2857 7.1852 37.2857ZM24.6325 31.229C18.8809 31.229 14.2642 26.5996 14.2642 20.8129C14.2642 15.0069 18.8809 10.3775 24.6325 10.3775C30.4034 10.3775 35.0202 15.0069 35.0202 20.8129C35.0202 26.5996 30.4034 31.229 24.6325 31.229ZM36.2513 13.7145C36.2513 12.345 37.4247 11.1491 38.829 11.1491C40.214 11.1491 41.3874 12.345 41.3874 13.7145C41.3874 15.1419 40.214 16.2607 38.829 16.2799C37.4247 16.2799 36.2513 15.1612 36.2513 13.7145ZM24.6325 27.7376C28.4606 27.7376 31.5384 24.6514 31.5384 20.8129C31.5384 16.9551 28.4606 13.8688 24.6325 13.8688C20.8238 13.8688 17.7459 16.9551 17.7459 20.8129C17.7459 24.6514 20.843 27.7376 24.6325 27.7376Z" fill="#9D9D9D"/>
</svg>
