<svg width="85" height="66" viewBox="0 0 85 66" fill="none" xmlns="http://www.w3.org/2000/svg">
<path d="M11.3081 66H73.6575C81.0817 66 85 62.1759 85 54.8691V19.0181C85 11.7113 81.0817 7.88722 73.6575 7.88722H64.5148C61.8338 7.88722 60.9745 7.44335 59.2903 5.70202L56.575 2.79979C54.7877 0.921883 52.966 0 49.4602 0H35.3336C31.8277 0 30.0061 0.921883 28.2188 2.79979L25.5034 5.70202C23.8536 7.40921 22.96 7.88722 20.279 7.88722H11.3081C3.88395 7.88722 0 11.7113 0 19.0181V54.8691C0 62.1759 3.88395 66 11.3081 66ZM42.4828 55.2788C32.2058 55.2788 23.9567 47.0843 23.9567 36.8412C23.9567 26.5639 32.2058 18.3694 42.4828 18.3694C52.7942 18.3694 61.0433 26.5639 61.0433 36.8412C61.0433 47.0843 52.7942 55.2788 42.4828 55.2788ZM63.243 24.2763C63.243 21.852 65.3397 19.7351 67.8488 19.7351C70.3235 19.7351 72.4201 21.852 72.4201 24.2763C72.4201 26.8029 70.3235 28.7832 67.8488 28.8174C65.3397 28.8174 63.243 26.837 63.243 24.2763ZM42.4828 49.0988C49.3227 49.0988 54.8221 43.6358 54.8221 36.8412C54.8221 30.0124 49.3227 24.5494 42.4828 24.5494C35.6773 24.5494 30.1779 30.0124 30.1779 36.8412C30.1779 43.6358 35.7117 49.0988 42.4828 49.0988Z" fill="white"/>
</svg>
