<svg width="21" height="20" viewBox="0 0 21 20" fill="none" xmlns="http://www.w3.org/2000/svg">
<path d="M18.3631 2.15173C17.9463 1.72391 17.3294 1.56453 16.7541 1.7323L3.34032 5.63302C2.73341 5.80163 2.30323 6.28565 2.18735 6.90054C2.06897 7.52633 2.48247 8.32074 3.02269 8.65293L7.21691 11.2308C7.64709 11.495 8.20231 11.4287 8.55829 11.0697L13.3611 6.237C13.6029 5.98534 14.003 5.98534 14.2448 6.237C14.4866 6.48027 14.4866 6.87454 14.2448 7.1262L9.43365 11.9597C9.07684 12.3179 9.01014 12.8758 9.27275 13.3086L11.8355 17.5449C12.1356 18.0482 12.6525 18.3334 13.2194 18.3334C13.2861 18.3334 13.3611 18.3334 13.4278 18.325C14.0781 18.2411 14.5949 17.7965 14.7867 17.1674L18.7633 3.77074C18.9384 3.20031 18.78 2.57955 18.3631 2.15173Z" fill="#9D9D9D"/>
</svg>
