<svg width="26" height="26" viewBox="0 0 26 26" fill="none" xmlns="http://www.w3.org/2000/svg">
<g clip-path="url(#clip0_192_6625)">
<path d="M24.6331 3.40939L25.609 2.38077C26.1035 1.85995 26.1426 1.14382 25.6481 0.64904L25.3097 0.297486C24.8673 -0.145212 24.1256 -0.080109 23.6441 0.40165L22.6291 1.39121L24.6331 3.40939ZM9.22602 17.2632L11.8936 16.1435L23.6832 4.34687L21.6792 2.35473L9.88967 14.1643L8.71852 16.7424C8.5884 17.0419 8.92673 17.3804 9.22602 17.2632ZM4.28119 26H19.441C21.9395 26 23.4099 24.5417 23.4099 21.7553V8.00564L20.8073 10.5967V21.5209C20.8073 22.7709 20.1437 23.3959 19.2718 23.3959H4.45035C3.25318 23.3959 2.60254 22.7709 2.60254 21.5209V7.05514C2.60254 5.80517 3.25318 5.18018 4.45035 5.18018H15.4982L18.0877 2.57608H4.28119C1.47044 2.57608 0 4.03438 0 6.82077V21.7553C0 24.5417 1.47044 26 4.28119 26Z" fill="#9D9D9D"/>
</g>
<defs>
<clipPath id="clip0_192_6625">
<rect width="26" height="26" fill="white"/>
</clipPath>
</defs>
</svg>
