<svg width="36" height="38" viewBox="0 0 36 38" fill="none" xmlns="http://www.w3.org/2000/svg">
<path d="M7.69775 2.79682H28.7474C28.6353 1.34539 27.7862 0.571289 26.2323 0.571289H10.2128C8.65893 0.571289 7.80989 1.34539 7.69775 2.79682ZM4.55793 7.48979H31.9032C31.679 5.95772 30.894 5.07073 29.1799 5.07073H7.26523C5.55114 5.07073 4.7822 5.95772 4.55793 7.48979ZM6.12784 37.857H30.2853C33.7455 37.857 35.5717 36.0508 35.5717 32.5996V15.4082C35.5717 11.957 33.7455 10.1508 30.2853 10.1508H6.12784C2.65161 10.1508 0.857422 11.9409 0.857422 15.4082V32.5996C0.857422 36.0508 2.65161 37.857 6.12784 37.857ZM6.3361 34.6316C4.8623 34.6316 4.04531 33.8736 4.04531 32.3093V15.6985C4.04531 14.1341 4.8623 13.36 6.3361 13.36H30.077C31.5508 13.36 32.3678 14.1341 32.3678 15.6985V32.3093C32.3678 33.8736 31.5508 34.6316 30.077 34.6316H27.642C26.2964 31.2933 22.6119 29.0033 18.2066 29.0033C13.8172 29.0033 10.1327 31.2933 8.78708 34.6316H6.3361ZM18.2066 26.6326C21.01 26.6648 23.2046 24.2619 23.2046 21.1494C23.2046 18.1981 21.01 15.763 18.2066 15.763C15.4192 15.763 13.2085 18.1981 13.2245 21.1494C13.2405 24.2619 15.4031 26.6003 18.2066 26.6326Z" fill="#9D9D9D"/>
</svg>
