<svg width="16" height="17" viewBox="0 0 16 17" fill="none" xmlns="http://www.w3.org/2000/svg">
<path d="M13.9456 3.67596L9.97698 14.396C9.72631 15.0733 9.00431 15.4213 8.36498 15.1726C8.20666 15.1099 8.06303 15.0151 7.94313 14.8942C7.82324 14.7732 7.72967 14.6288 7.66831 14.47L6.41031 11.29C6.1739 10.6795 5.70526 10.1876 5.10698 9.92196L2.07898 8.60129C1.44898 8.32596 1.16231 7.56262 1.43764 6.89596C1.50277 6.73498 1.59917 6.58852 1.72127 6.46505C1.84337 6.34158 1.98874 6.24355 2.14898 6.17662L12.3596 2.00996C13.0043 1.74662 13.7196 2.07729 13.9563 2.74929C14.061 3.04662 14.057 3.37596 13.9463 3.67596H13.9456Z" fill="#9D9D9D"/>
</svg>
