<svg width="34" height="34" viewBox="0 0 34 34" fill="none" xmlns="http://www.w3.org/2000/svg">
<path d="M17 0V6.96511L17 13.4659L17 19.5023V23.217V25.384L7.72949 28L7.4 18.5391L2 10.695L11.0669 7.46395L17 0Z" fill="#FFA200"/>
<path d="M16.6667 1.62581L22.1479 8.65223L22.3248 8.87895L22.5951 8.9771L30.9714 12.0188L25.9826 19.403L25.8217 19.6413L25.8119 19.9287L25.5075 28.835L16.943 26.3723L16.6667 26.2928L16.3903 26.3723L7.82588 28.835L7.52148 19.9287L7.51166 19.6413L7.35069 19.403L2.36197 12.0188L10.7383 8.9771L11.0086 8.87895L11.1854 8.65223L16.6667 1.62581Z" stroke="#FFA200" stroke-width="2"/>
</svg>
