<svg width="16" height="18" viewBox="0 0 16 18" fill="none" xmlns="http://www.w3.org/2000/svg">
<path d="M5.61248 16.3112V13.7631C5.61248 13.1126 6.14364 12.5853 6.79886 12.5853H9.19401C9.50865 12.5853 9.81041 12.7094 10.0329 12.9303C10.2554 13.1512 10.3804 13.4507 10.3804 13.7631V16.3112C10.3784 16.5816 10.4852 16.8416 10.6771 17.0336C10.8691 17.2255 11.1302 17.3334 11.4026 17.3334H13.0367C13.7999 17.3354 14.5325 17.0358 15.0728 16.5008C15.6132 15.9657 15.9168 15.2392 15.9168 14.4816V7.22246C15.9168 6.61046 15.6436 6.02995 15.1707 5.63731L9.61185 1.22997C8.64488 0.457216 7.25942 0.482166 6.32132 1.28923L0.88934 5.63731C0.394113 6.01837 0.098123 6.60061 0.0834961 7.22246V14.4742C0.0834961 16.0533 1.37298 17.3334 2.96364 17.3334H4.5604C5.12618 17.3334 5.58599 16.8803 5.59009 16.3186L5.61248 16.3112Z" fill="#9D9D9D"/>
</svg>
