<svg width="34" height="40" viewBox="0 0 34 40" fill="none" xmlns="http://www.w3.org/2000/svg">
<path id="Exclude" fill-rule="evenodd" clip-rule="evenodd" d="M0 16.3093C0 7.28998 7.53702 0 16.6538 0C25.7963 0 33.3333 7.28998 33.3333 16.3093C33.3333 20.8543 31.6804 25.0738 28.9598 28.6501C25.9584 32.5951 22.2591 36.0323 18.0952 38.7302C17.1422 39.3538 16.2821 39.4008 15.2362 38.7302C11.0485 36.0323 7.34919 32.5951 4.37353 28.6501C1.65095 25.0738 0 20.8543 0 16.3093ZM11.1651 16.8171C11.1651 19.8386 13.6307 22.215 16.6538 22.215C19.6789 22.215 22.1682 19.8386 22.1682 16.8171C22.1682 13.8192 19.6789 11.3271 16.6538 11.3271C13.6307 11.3271 11.1651 13.8192 11.1651 16.8171Z" fill="#B72828"/>
</svg>
