<svg width="60" height="56" viewBox="0 0 60 56" fill="none" xmlns="http://www.w3.org/2000/svg">
<path d="M4.32476 52.8666C8.77752 57.0484 14.8063 57.0247 19.0839 52.9142C23.0364 49.1363 24.087 44.5031 30.8162 36.2583L41.3728 46.2851L41.5228 48.6373C41.5729 49.4452 42.1482 50.3005 43.0238 50.7757L51.2539 55.1951C52.0794 55.6228 52.8048 55.7178 53.4052 55.1476L56.8073 51.9162C57.3577 51.3698 57.2826 50.6569 56.8073 49.8491L52.1795 42.0796C51.7042 41.2479 50.8036 40.7015 49.903 40.6539L47.4265 40.5114L36.3696 30.0332C37.4453 28.9165 38.621 27.7522 39.8968 26.5405C45.2752 28.7977 51.6791 27.9423 55.9318 23.8793C60.6097 19.4599 61.3351 12.427 57.6829 6.8671L54.8311 9.57575V9.59951L50.8036 13.3774C50.1782 13.9951 49.4027 14.0189 48.7523 13.3774L45.9506 10.7162C45.2502 10.051 45.2251 9.31439 45.8505 8.72039L49.853 4.91877L52.7298 2.21012C46.9012 -1.25885 39.5216 -0.593571 34.8437 3.84957C31.1664 7.36606 29.9657 12.3557 31.2415 16.9414L17.533 3.87333C13.8307 0.356833 9.85319 0.333073 6.22594 3.77829L2.69875 7.15222C-0.928501 10.5737 -0.903486 14.3515 2.79881 17.868L16.7825 31.1499C11.079 34.6664 7.42668 35.8782 4.27473 38.8244C-0.0529578 42.9112 -0.0779733 48.6136 4.32476 52.8666ZM42.9237 12.7834L46.551 16.2048C48.4271 17.9868 50.8286 18.0343 52.6047 16.3474L55.9818 13.116C56.4071 16.1098 55.4315 19.1035 53.1551 21.2657C49.0775 25.1386 42.3233 24.9485 37.9957 20.8856C33.693 16.7988 33.5179 10.3361 37.6204 6.48694C39.8718 4.34853 43.0238 3.42188 46.1507 3.80205L42.7736 6.9859C40.9225 8.74415 40.9975 11.0014 42.9237 12.7834ZM21.0351 19.6025L11.5042 10.4786C11.0539 10.051 11.0289 9.36191 11.5042 8.91047C11.9545 8.48278 12.705 8.45902 13.1803 8.91047L22.7362 17.9868C23.2115 18.4145 23.2115 19.1511 22.7112 19.6263C22.3109 20.0064 21.5104 20.0777 21.0351 19.6025ZM17.658 22.7864L8.07709 13.7575C7.60179 13.2823 7.65182 12.5695 8.1021 12.1181C8.55238 11.6904 9.32786 11.7142 9.75313 12.1181L19.3591 21.2182C19.8344 21.6934 19.8094 22.3587 19.3591 22.7864C18.8838 23.2378 18.1333 23.2616 17.658 22.7864ZM35.2189 23.4992C35.6692 23.9031 36.1195 24.307 36.5948 24.6396C20.1596 40.7015 21.8606 44.7169 16.1571 50.158C13.5555 52.6528 10.0033 52.7478 7.22656 50.1342C4.44984 47.4493 4.57491 44.0992 7.17653 41.6281C12.9051 36.2108 17.1077 37.8265 34.0182 22.2161C34.3934 22.6676 34.7937 23.0952 35.2189 23.4992ZM11.6293 48.8037C13.2553 48.8037 14.5811 47.5444 14.5811 45.9762C14.5811 44.4318 13.2553 43.1725 11.6293 43.1725C10.0033 43.1725 8.65244 44.4318 8.65244 45.9762C8.65244 47.5444 10.0033 48.8037 11.6293 48.8037Z" fill="white"/>
</svg>
