<svg width="17" height="18" viewBox="0 0 17 18" fill="none" xmlns="http://www.w3.org/2000/svg">
<path d="M8.49996 0.666748C13.1 0.666748 16.8333 4.40008 16.8333 9.00008C16.8333 13.6084 13.1 17.3334 8.49996 17.3334C3.89163 17.3334 0.166626 13.6084 0.166626 9.00008C0.166626 4.40008 3.89163 0.666748 8.49996 0.666748ZM11.7083 6.25841C11.8 5.96675 11.5333 5.69175 11.2416 5.78341L6.97496 7.11675C6.79996 7.17508 6.65829 7.30841 6.60829 7.48341L5.27496 11.7584C5.18329 12.0417 5.45829 12.3167 5.74163 12.2251L9.99163 10.8917C10.1666 10.8417 10.3083 10.7001 10.3583 10.5251L11.7083 6.25841Z" fill="#9D9D9D"/>
</svg>
