<svg width="45" height="46" viewBox="0 0 45 46" fill="none" xmlns="http://www.w3.org/2000/svg">
<path d="M17 30.3425L17 16.9025C17.0003 16.7343 17.0458 16.5693 17.1317 16.4248C17.2177 16.2803 17.341 16.1615 17.4886 16.081C17.6362 16.0005 17.8028 15.9612 17.9708 15.9671C18.1389 15.9731 18.3022 16.0242 18.4438 16.115L28.8987 22.8331C29.0311 22.9179 29.1401 23.0347 29.2155 23.1726C29.2909 23.3106 29.3305 23.4653 29.3305 23.6225C29.3305 23.7797 29.2909 23.9344 29.2155 24.0724C29.1401 24.2103 29.0311 24.327 28.8987 24.4119L18.4438 31.1319C18.3022 31.2227 18.1389 31.2737 17.9708 31.2797C17.8028 31.2857 17.6362 31.2464 17.4886 31.1658C17.341 31.0853 17.2177 30.9666 17.1317 30.822C17.0458 30.6775 17.0003 30.5125 17 30.3444V30.3425Z" fill="white"/>
<path d="M1.875 23.4666C1.875 12.0759 11.1094 2.84155 22.5 2.84155C33.8906 2.84155 43.125 12.0759 43.125 23.4666C43.125 34.8572 33.8906 44.0916 22.5 44.0916C11.1094 44.0916 1.875 34.8572 1.875 23.4666ZM22.5 5.65405C17.7758 5.65405 13.2452 7.53072 9.90466 10.8712C6.56417 14.2117 4.6875 18.7424 4.6875 23.4666C4.6875 28.1907 6.56417 32.7214 9.90466 36.0619C13.2452 39.4024 17.7758 41.2791 22.5 41.2791C27.2242 41.2791 31.7548 39.4024 35.0953 36.0619C38.4358 32.7214 40.3125 28.1907 40.3125 23.4666C40.3125 18.7424 38.4358 14.2117 35.0953 10.8712C31.7548 7.53072 27.2242 5.65405 22.5 5.65405Z" fill="white"/>
<path d="M31 27.7999C31 26.6082 29.9071 25.6332 28.5714 25.6332L16.4286 25.6332C15.0929 25.6332 14 26.6082 14 27.7999C14 28.9916 15.0929 29.9666 16.4286 29.9666L28.5714 29.9666C29.9071 29.9666 31 28.9916 31 27.7999ZM16.4286 21.2999L28.5714 21.2999C29.9071 21.2999 31 20.3249 31 19.1332C31 17.9416 29.9071 16.9666 28.5714 16.9666L16.4286 16.9666C15.0929 16.9666 14 17.9416 14 19.1332C14 20.3249 15.0929 21.2999 16.4286 21.2999Z" fill="white" fill-opacity="0.01"/>
</svg>
