<svg width="135" height="135" viewBox="0 0 135 135" fill="none" xmlns="http://www.w3.org/2000/svg">
<path id="person.crop.circle.fill" d="M67.4674 135C104.464 135 135 104.449 135 67.5C135 30.5513 104.398 0 67.4021 0C30.4712 0 0 30.5513 0 67.5C0 104.449 30.5365 135 67.4674 135ZM67.4021 78.1407C54.6133 78.0754 44.6955 67.3694 44.6955 53.2036C44.565 39.8864 54.6786 28.7887 67.4021 28.7887C80.1257 28.7887 90.1087 39.8864 90.1087 53.2036C90.1087 67.3694 80.1909 78.2713 67.4021 78.1407ZM67.4021 123.837C52.7864 123.837 37.2571 117.766 27.4045 107.191C34.9082 95.9623 49.7849 89.4342 67.4021 89.4342C84.8236 89.4342 99.8308 95.8317 107.4 107.191C97.5471 117.766 82.0179 123.837 67.4021 123.837Z" fill="#D9D9D9"/>
</svg>
