<svg width="25" height="28" viewBox="0 0 25 28" fill="none" xmlns="http://www.w3.org/2000/svg">
<path id="trash" d="M6.69281 28H18.3198C20.2682 28 21.5207 26.8473 21.622 24.9385L22.4696 7.08986H23.8613C24.5066 7.08986 25 6.59407 25 5.97433C25 5.35458 24.4939 4.88358 23.8613 4.88358H18.2439V3.02435C18.2439 1.11554 17.004 0 14.8912 0H10.0835C7.97065 0 6.73077 1.11554 6.73077 3.02435V4.88358H1.13866C0.506073 4.88358 0 5.36698 0 5.97433C0 6.60646 0.506073 7.08986 1.13866 7.08986H2.53036L3.37804 24.9385C3.47925 26.8597 4.71913 28 6.69281 28ZM9.09666 3.1359C9.09666 2.50376 9.55212 2.09473 10.248 2.09473H14.7267C15.4226 2.09473 15.878 2.50376 15.878 3.1359V4.88358H9.09666V3.1359ZM6.94585 25.7813C6.25 25.7813 5.74393 25.2731 5.70597 24.5418L4.8583 7.08986H20.1037L19.2814 24.5418C19.2561 25.2855 18.7627 25.7813 18.0415 25.7813H6.94585ZM8.76771 23.7857C9.31174 23.7857 9.65334 23.4511 9.64069 22.9553L9.26113 9.99026C9.24848 9.49447 8.89423 9.1722 8.37551 9.1722C7.84413 9.1722 7.50253 9.50686 7.51518 10.0027L7.89474 22.9677C7.90739 23.4635 8.26164 23.7857 8.76771 23.7857ZM12.5 23.7857C13.0314 23.7857 13.3983 23.4635 13.3983 22.9677V10.0027C13.3983 9.50686 13.0314 9.1722 12.5 9.1722C11.9686 9.1722 11.6144 9.50686 11.6144 10.0027V22.9677C11.6144 23.4635 11.9686 23.7857 12.5 23.7857ZM16.2323 23.7981C16.7384 23.7981 17.0926 23.4635 17.1053 22.9677L17.4848 10.0027C17.4975 9.50686 17.1559 9.1846 16.6245 9.1846C16.1058 9.1846 15.7515 9.50686 15.7389 10.0027L15.3593 22.9677C15.3467 23.4511 15.6883 23.7981 16.2323 23.7981Z" fill="#B72828"/>
</svg>
