<svg width="15" height="21" viewBox="0 0 15 21" fill="none" xmlns="http://www.w3.org/2000/svg">
<path d="M7.5 13.5798C9.4928 13.5798 10.9653 12.1282 10.9653 10.0082V3.57162C10.9653 1.45157 9.4928 0 7.5 0C5.5072 0 4.03469 1.45157 4.03469 3.57162V10.0082C4.03469 12.1282 5.5072 13.5798 7.5 13.5798ZM0 10.2278C0 14.1814 2.69961 16.884 6.58704 17.2469V19.1855H2.98429C2.46401 19.1855 2.03207 19.5866 2.03207 20.0928C2.03207 20.5894 2.46401 21 2.98429 21H12.0157C12.536 21 12.9679 20.5894 12.9679 20.0928C12.9679 19.5866 12.536 19.1855 12.0157 19.1855H8.41296V17.2469C12.3004 16.884 15 14.1814 15 10.2278V8.34652C15 7.84038 14.5877 7.44884 14.0674 7.44884C13.5471 7.44884 13.1152 7.84038 13.1152 8.34652V10.161C13.1152 13.4175 10.8475 15.5566 7.5 15.5566C4.15249 15.5566 1.88482 13.4175 1.88482 10.161V8.34652C1.88482 7.84038 1.4627 7.44884 0.942408 7.44884C0.42212 7.44884 0 7.84038 0 8.34652V10.2278Z" fill="white"/>
</svg>
